<svg xmlns="http://www.w3.org/2000/svg" width="1200" height="630" viewBox="0 0 1200 630">
  <defs>
    <linearGradient id="bg" x1="0%" y1="0%" x2="100%" y2="100%">
      <stop offset="0%" style="stop-color:#1a1620"/>
      <stop offset="100%" style="stop-color:#2d1b30"/>
    </linearGradient>
  </defs>
  <rect width="1200" height="630" fill="url(#bg)"/>
  <!-- Grid pattern -->
  <pattern id="grid" width="48" height="48" patternUnits="userSpaceOnUse">
    <path d="M 48 0 L 0 0 0 48" fill="none" stroke="rgba(255,255,255,0.04)" stroke-width="1"/>
  </pattern>
  <rect width="1200" height="630" fill="url(#grid)"/>
  <!-- Accent block with Я path -->
  <rect x="80" y="140" width="180" height="180" rx="24" fill="#dc2626"/>
  <g transform="translate(100, 170) scale(1.8)">
    <path d="M30 80 L42 55 Q30 50 30 38 Q30 25 45 25 L62 25 Q77 25 77 38 Q77 50 65 55 L70 80 L58 80 L54 58 L44 58 L40 80 Z M45 35 Q40 35 40 39 Q40 44 47 48 L55 48 Q62 44 62 39 Q62 35 57 35 Z" fill="#faf3e0"/>
  </g>
  <!-- Title -->
  <text x="320" y="220" font-family="sans-serif" font-size="72" font-weight="900" fill="#faf3e0" letter-spacing="-2">RuSource</text>
  <text x="320" y="270" font-family="sans-serif" font-size="24" font-weight="500" fill="rgba(250,243,224,0.6)" letter-spacing="4">CURATED RUSSIAN LEARNING DIRECTORY</text>
  <!-- Subtitle -->
  <text x="320" y="330" font-family="sans-serif" font-size="28" fill="rgba(250,243,224,0.8)">700+ resources · 30+ categories · A1 → C2 · Free forever</text>
  <!-- Bottom accent -->
  <rect x="80" y="500" width="120" height="4" fill="#dc2626"/>
  <text x="80" y="540" font-family="sans-serif" font-size="18" fill="rgba(250,243,224,0.5)" letter-spacing="2">RUSOURCE.ORG</text>
</svg>
